<svg xmlns="http://www.w3.org/2000/svg" xmlns:xlink="http://www.w3.org/1999/xlink" width="500" zoomAndPan="magnify" viewBox="0 0 375 374.999991" height="500" preserveAspectRatio="xMidYMid meet" version="1.0"><defs><g/><clipPath id="d0446062d1"><path d="M 102.234375 66.164062 L 272.765625 66.164062 L 272.765625 236.699219 L 102.234375 236.699219 Z M 102.234375 66.164062 " clip-rule="nonzero"/></clipPath><clipPath id="b26d38b4cd"><path d="M 187.5 66.164062 C 140.410156 66.164062 102.234375 104.339844 102.234375 151.433594 C 102.234375 198.523438 140.410156 236.699219 187.5 236.699219 C 234.589844 236.699219 272.765625 198.523438 272.765625 151.433594 C 272.765625 104.339844 234.589844 66.164062 187.5 66.164062 " clip-rule="nonzero"/></clipPath><clipPath id="1fdbab8f4c"><path d="M 125 81 L 242 81 L 242 208 L 125 208 Z M 125 81 " clip-rule="nonzero"/></clipPath><clipPath id="5b1f9aa60c"><path d="M 130.375 211.101562 L 123.859375 84.519531 L 275.90625 76.695312 L 282.425781 203.277344 Z M 130.375 211.101562 " clip-rule="nonzero"/></clipPath><clipPath id="6b319b6caa"><path d="M 130.375 211.101562 L 123.859375 84.519531 L 275.90625 76.695312 L 282.425781 203.277344 Z M 130.375 211.101562 " clip-rule="nonzero"/></clipPath><clipPath id="f897201d44"><path d="M 130.367188 210.960938 L 123.863281 84.570312 L 236.027344 78.796875 L 242.535156 205.1875 Z M 130.367188 210.960938 " clip-rule="nonzero"/></clipPath><clipPath id="7fe537fe8c"><path d="M 130.367188 210.960938 L 123.867188 84.667969 L 236.035156 78.894531 L 242.535156 205.1875 Z M 130.367188 210.960938 " clip-rule="nonzero"/></clipPath><clipPath id="118ee9e625"><path d="M 184 111 L 282 111 L 282 180 L 184 180 Z M 184 111 " clip-rule="nonzero"/></clipPath><clipPath id="ae88313987"><path d="M 130.375 211.101562 L 123.859375 84.519531 L 275.90625 76.695312 L 282.425781 203.277344 Z M 130.375 211.101562 " clip-rule="nonzero"/></clipPath><clipPath id="dbd72c13d9"><path d="M 130.375 211.101562 L 123.859375 84.519531 L 275.90625 76.695312 L 282.425781 203.277344 Z M 130.375 211.101562 " clip-rule="nonzero"/></clipPath><clipPath id="f048f04c9b"><path d="M 186.628906 184.859375 L 182.898438 112.375 L 277.738281 107.492188 L 281.46875 179.976562 Z M 186.628906 184.859375 " clip-rule="nonzero"/></clipPath><clipPath id="32e7aa9b06"><path d="M 186.628906 184.859375 L 182.898438 112.375 L 277.503906 107.503906 L 281.238281 179.988281 Z M 186.628906 184.859375 " clip-rule="nonzero"/></clipPath><clipPath id="a1be890bd2"><path d="M 138 83 L 210 83 L 210 144 L 138 144 Z M 138 83 " clip-rule="nonzero"/></clipPath><clipPath id="8badc0a146"><path d="M 130.375 211.101562 L 123.859375 84.519531 L 275.90625 76.695312 L 282.425781 203.277344 Z M 130.375 211.101562 " clip-rule="nonzero"/></clipPath><clipPath id="f704f00f18"><path d="M 130.375 211.101562 L 123.859375 84.519531 L 275.90625 76.695312 L 282.425781 203.277344 Z M 130.375 211.101562 " clip-rule="nonzero"/></clipPath><clipPath id="e570ef3fd2"><path d="M 130 136 L 200 136 L 200 201 L 130 201 Z M 130 136 " clip-rule="nonzero"/></clipPath><clipPath id="eadfb4c7f9"><path d="M 130.375 211.101562 L 123.859375 84.519531 L 275.90625 76.695312 L 282.425781 203.277344 Z M 130.375 211.101562 " clip-rule="nonzero"/></clipPath><clipPath id="795fcb96e3"><path d="M 130.375 211.101562 L 123.859375 84.519531 L 275.90625 76.695312 L 282.425781 203.277344 Z M 130.375 211.101562 " clip-rule="nonzero"/></clipPath><clipPath id="2433476236"><path d="M 132.335938 159.152344 L 242.886719 159.152344 L 242.886719 258.941406 L 132.335938 258.941406 Z M 132.335938 159.152344 " clip-rule="nonzero"/></clipPath><clipPath id="bc9896ef9a"><path d="M 132.011719 189 L 242 189 L 242 274.652344 L 132.011719 274.652344 Z M 132.011719 189 " clip-rule="nonzero"/></clipPath></defs><g clip-path="url(#d0446062d1)"><g clip-path="url(#b26d38b4cd)"><path fill="#34ac71" d="M 102.234375 66.164062 L 272.765625 66.164062 L 272.765625 236.699219 L 102.234375 236.699219 Z M 102.234375 66.164062 " fill-opacity="1" fill-rule="nonzero"/></g></g><g clip-path="url(#1fdbab8f4c)"><g clip-path="url(#5b1f9aa60c)"><g clip-path="url(#6b319b6caa)"><g clip-path="url(#f897201d44)"><g clip-path="url(#7fe537fe8c)"><path fill="#ffffff" d="M 131.574219 121.054688 C 131.574219 121.054688 134.324219 114.496094 133.726562 109.492188 C 133.128906 104.488281 125.613281 99.230469 125.097656 106.871094 C 124.578125 114.511719 131.574219 121.054688 131.574219 121.054688 C 131.574219 121.054688 128.277344 116.125 127.816406 113.933594 C 127.816406 113.933594 129.875 115.960938 130.597656 118 C 130.597656 118 129.613281 113.855469 130.121094 112.601562 C 130.121094 112.601562 131.777344 116.246094 131.664062 117.820312 C 131.664062 117.820312 132.109375 115.007812 132.691406 114.007812 C 132.691406 114.007812 132.191406 119.324219 131.574219 121.054688 Z M 185.835938 82.515625 C 185.835938 82.515625 198.292969 86.359375 202.097656 97.015625 C 202.097656 97.015625 209.632812 103.480469 208.972656 110.503906 C 208.972656 110.503906 211.890625 104.292969 200.886719 90.6875 C 200.886719 90.6875 206.453125 95.355469 208.75 95.773438 C 208.75 95.773438 203.675781 91.550781 202.179688 89.003906 C 200.683594 86.453125 193.203125 83 185.835938 82.515625 Z M 141.027344 144.03125 C 142.203125 142.863281 148.742188 136.105469 150.714844 130.644531 C 152.6875 125.183594 157.824219 106.011719 173.132812 94.074219 C 188.445312 82.136719 200.816406 96.148438 200.816406 96.148438 C 200.816406 96.148438 196.351562 86.855469 184.285156 83.105469 C 172.21875 79.351562 159.351562 85.25 147.859375 96.503906 C 136.371094 107.757812 132.679688 121.519531 130.542969 125.394531 C 128.40625 129.273438 129.492188 135.070312 128.855469 137.570312 C 127.976562 141.015625 130.953125 145.929688 133.160156 147.34375 C 136.109375 149.234375 139.851562 145.199219 141.027344 144.03125 Z M 185.921875 164.085938 C 185.121094 165.371094 181.144531 165.117188 181.144531 165.117188 C 182.832031 165.449219 187.617188 168.777344 187.617188 168.777344 C 185.511719 169.683594 181.203125 166.058594 181.203125 166.058594 C 183 167.945312 184.34375 170.601562 184.34375 170.601562 C 182.921875 170.382812 180.738281 166.984375 179.511719 164.890625 C 180.148438 167.4375 181.804688 172.515625 185.078125 173.449219 C 189.476562 174.703125 194.660156 175.390625 194.824219 175.53125 C 194.988281 175.667969 193.328125 167.785156 188.664062 164.457031 C 187.210938 163.417969 185.25 163.085938 183.492188 163.042969 C 184.863281 163.492188 185.921875 164.085938 185.921875 164.085938 Z M 154.695312 175.566406 C 154.695312 175.566406 155.148438 173.304688 155.609375 172.023438 C 154.914062 173.386719 153.34375 176.117188 151.898438 176.195312 C 151.898438 176.195312 152.621094 173.507812 154.171875 171.148438 C 146.808594 175.230469 146.46875 185.125 146.46875 185.125 C 147.234375 184.222656 152.359375 182.789062 154.425781 180.125 C 156.03125 178.050781 156.636719 173.082031 156.828125 170.984375 C 156.203125 172.660156 155.375 174.59375 154.695312 175.566406 Z M 222.238281 190.664062 C 220.574219 194.160156 218.804688 196.535156 218.804688 196.535156 C 220.054688 196.367188 225.578125 192.941406 225.578125 192.941406 C 224.324219 194.410156 222.238281 195.855469 220.058594 197.117188 C 225.148438 195.910156 233.535156 192.195312 241.28125 180.882812 C 241.28125 180.882812 236.652344 184.09375 233.554688 184.460938 C 233.554688 184.460938 236.769531 179.09375 236.777344 171.015625 C 236.777344 171.015625 231.488281 181.917969 226.550781 184.554688 C 226.550781 184.554688 226.023438 181.847656 226.140625 177.867188 C 226.140625 177.867188 222.277344 187.070312 218.839844 192.992188 C 220.726562 191.59375 222.238281 190.664062 222.238281 190.664062 Z M 158.875 179.226562 C 156.085938 169.117188 154.691406 157.144531 159.042969 147.917969 C 163.398438 138.6875 166.910156 142.984375 171.4375 146.410156 C 175.964844 149.835938 177.699219 156.570312 177.765625 162.773438 C 177.835938 168.976562 181.535156 187.234375 198.539062 196.332031 C 215.539062 205.429688 231.800781 193.558594 231.800781 193.558594 C 192.441406 227.042969 161.996094 190.542969 158.875 179.226562 " fill-opacity="1" fill-rule="nonzero"/></g></g></g></g></g><g clip-path="url(#118ee9e625)"><g clip-path="url(#ae88313987)"><g clip-path="url(#dbd72c13d9)"><g clip-path="url(#f048f04c9b)"><g clip-path="url(#32e7aa9b06)"><path fill="#ffffff" d="M 215.238281 150.152344 C 211.039062 149.523438 208.136719 150.667969 207.234375 150.542969 C 209.039062 150.640625 213.800781 153.796875 213.800781 153.796875 C 211.179688 153.609375 207.234375 150.542969 207.234375 150.542969 C 207.007812 150.511719 212.425781 156.503906 219.953125 158.542969 C 219.953125 158.542969 219.4375 150.78125 215.238281 150.152344 Z M 199.285156 120.347656 C 197.175781 124.621094 199.425781 128.925781 199.425781 128.925781 C 199.425781 128.925781 198.515625 124.445312 199.789062 121.597656 C 199.789062 121.597656 199.652344 124.21875 200.015625 125.464844 C 200.015625 125.464844 199.921875 123.9375 202.421875 124.019531 C 202.421875 124.019531 199.703125 127.113281 199.425781 128.925781 C 200.957031 126.09375 207.707031 125.855469 208.976562 124.089844 C 210.246094 122.328125 202.648438 111.386719 202.648438 111.386719 C 202.648438 111.386719 201.390625 116.078125 199.285156 120.347656 Z M 243.273438 137.007812 C 247.882812 136.664062 253.28125 139.742188 254.910156 140.75 C 255.089844 140.847656 255.253906 140.953125 255.40625 141.0625 C 255.40625 141.0625 255.226562 140.945312 254.910156 140.75 C 252.523438 139.410156 247.71875 138.921875 247.71875 138.921875 C 252.023438 141.054688 253.46875 145.503906 253.953125 148.015625 C 254.140625 148.628906 254.234375 149.246094 254.191406 149.847656 C 254.191406 149.847656 254.164062 149.117188 253.953125 148.015625 C 252.757812 144.101562 247.601562 140.21875 247.601562 140.21875 C 249.871094 143.535156 247.800781 147.824219 247.800781 147.824219 C 249.230469 140.714844 240.820312 137.582031 240.820312 137.582031 C 240.820312 137.582031 247.8125 141.046875 245.882812 149.445312 C 243.953125 157.84375 244.933594 164.199219 245.890625 165.785156 C 245.890625 165.785156 246.175781 158.472656 250.476562 155.210938 C 250.476562 155.210938 249.179688 162.972656 256.058594 169.875 C 262.941406 176.773438 281.226562 179.8125 281.226562 179.8125 C 281.226562 179.8125 263.695312 159.859375 264.929688 152.546875 C 266.167969 145.230469 273.324219 156.390625 272.453125 160.398438 C 272.453125 160.398438 276.804688 154.785156 271.511719 148.515625 C 266.710938 142.824219 251.933594 135.976562 243.273438 137.007812 Z M 191.398438 132.753906 C 195.089844 130.539062 223.25 122.546875 234.128906 126.207031 C 245.011719 129.867188 256.8125 138.214844 256.8125 138.214844 C 241.582031 129.296875 228.53125 140.472656 222.308594 144.898438 C 216.085938 149.324219 205.804688 149.714844 199.910156 149.96875 C 194.019531 150.226562 185.558594 144.589844 185.558594 144.589844 C 182.402344 142.726562 187.710938 134.96875 191.398438 132.753906 " fill-opacity="1" fill-rule="nonzero"/></g></g></g></g></g><g clip-path="url(#a1be890bd2)"><g clip-path="url(#8badc0a146)"><g clip-path="url(#f704f00f18)"><path fill="#ffffff" d="M 202.78125 95.78125 C 202.941406 96.394531 203.03125 97.140625 203.089844 97.957031 C 205.109375 99.996094 209.480469 105.078125 208.972656 110.503906 C 208.972656 110.503906 211.542969 105.03125 202.753906 93.101562 C 202.519531 93.792969 202.515625 94.765625 202.78125 95.78125 Z M 207.792969 95.453125 C 206.972656 94.410156 206.257812 93.585938 205.769531 93.097656 C 205.699219 93.03125 205.628906 92.964844 205.558594 92.894531 C 204.457031 91.886719 203.617188 91.886719 203.117188 92.449219 C 204.558594 93.539062 206.414062 94.839844 207.792969 95.453125 Z M 182.039062 83.4375 C 181.128906 82.335938 176.828125 84.976562 174.734375 85.246094 C 172.640625 85.515625 171.617188 89.011719 171.613281 89.128906 C 171.59375 92.84375 182.949219 84.539062 182.039062 83.4375 Z M 144.269531 111.523438 C 151.039062 103.277344 155.316406 99.109375 157.539062 98.8125 C 159.761719 98.515625 161.757812 93.457031 160.695312 92.171875 C 160.191406 91.5625 156.710938 91.28125 152.527344 92.300781 C 150.949219 93.601562 149.394531 95.003906 147.859375 96.5 C 144 100.285156 141.019531 104.351562 138.683594 108.230469 C 138.933594 112.476562 140.230469 116.445312 144.269531 111.523438 Z M 141.320312 134.855469 C 139.15625 137.488281 140.40625 140.792969 141.949219 143.085938 C 144.148438 140.769531 149.007812 135.289062 150.691406 130.707031 C 148.578125 130.285156 144.222656 131.332031 141.320312 134.855469 Z M 152.265625 128.824219 C 152.265625 128.824219 158.894531 125.964844 160.328125 123.839844 C 160.328125 123.839844 157.113281 124.1875 156.078125 125.660156 C 156.078125 125.660156 158.15625 121.726562 157.691406 120.652344 C 157.691406 120.652344 155.265625 123.421875 153.53125 126.320312 C 155.308594 122.863281 158.460938 116.988281 159.644531 116.347656 C 161.328125 115.4375 168.203125 117.554688 164.074219 122.449219 C 159.945312 127.339844 152.265625 128.824219 152.265625 128.824219 " fill-opacity="1" fill-rule="nonzero"/></g></g></g><g clip-path="url(#e570ef3fd2)"><g clip-path="url(#eadfb4c7f9)"><g clip-path="url(#795fcb96e3)"><path fill="#ffffff" d="M 138.128906 142.347656 C 137.179688 141.070312 134.917969 143.816406 134.917969 143.816406 C 135.878906 143.777344 139.078125 143.625 138.128906 142.347656 Z M 130.761719 138.578125 C 129.597656 140.003906 131.953125 142.359375 131.953125 142.359375 C 131.953125 142.359375 131.925781 137.15625 130.761719 138.578125 Z M 148.945312 181.949219 C 149.71875 180 151.140625 177.515625 151.0625 176.644531 C 151.042969 176.421875 150.5625 175.753906 149.820312 175.117188 C 147.8125 177.972656 147.003906 181.238281 146.679688 183.242188 C 147.777344 183.003906 148.6875 182.597656 148.945312 181.949219 Z M 183.765625 191.242188 C 185.128906 192.46875 186.765625 194.023438 190.394531 193.898438 C 194.023438 193.777344 193.484375 199.105469 195.886719 200.734375 C 197.277344 201.675781 198.816406 199.273438 199.820312 196.976562 C 199.394531 196.773438 198.964844 196.5625 198.539062 196.332031 C 191.570312 192.601562 186.835938 187.335938 183.671875 181.988281 C 182.234375 184.390625 182.628906 190.222656 183.765625 191.242188 Z M 168.292969 169.214844 C 168.621094 169.011719 172.628906 167.632812 172.21875 165.34375 C 171.8125 163.054688 176.199219 160.03125 172.585938 158.453125 C 168.976562 156.871094 166.003906 156.34375 164.859375 157.878906 C 163.71875 159.414062 164.890625 171.300781 168.292969 169.214844 Z M 172.3125 197.050781 C 174.175781 195.019531 176.375 192.304688 175.515625 191.640625 C 174.101562 190.539062 172.75 185.617188 172.566406 184.082031 C 172.382812 182.546875 172.40625 178.835938 169.457031 179.246094 C 167.554688 179.511719 163.789062 181.960938 161.375 184.601562 C 163.699219 188.445312 167.425781 193.015625 172.3125 197.050781 Z M 160.976562 148.324219 C 162.117188 148.5625 162.902344 145.710938 162.902344 145.710938 C 160.667969 145.902344 159.832031 148.085938 160.976562 148.324219 Z M 166.492188 144.921875 C 166.492188 144.921875 167.925781 148.296875 169.117188 146.921875 C 170.457031 145.371094 166.492188 144.921875 166.492188 144.921875 Z M 189.152344 136.820312 C 187.792969 136.710938 187.726562 141.003906 187.726562 141.003906 C 187.726562 141.003906 190.515625 136.929688 189.152344 136.820312 Z M 191.871094 145.976562 C 191.140625 147.175781 188.257812 143.691406 188.257812 143.691406 C 188.257812 143.691406 192.605469 144.78125 191.871094 145.976562 " fill-opacity="1" fill-rule="nonzero"/></g></g></g><g clip-path="url(#2433476236)"><path fill="#ffffff" d="M 239.265625 209.105469 C 239.863281 209.535156 240.726562 209.429688 241.339844 209.027344 C 243.0625 207.898438 243.878906 204.3125 240.902344 204.5 C 239.03125 204.617188 237.589844 207.898438 239.265625 209.105469 Z M 150.855469 179.980469 C 151.132812 181.289062 151.957031 182.503906 153.15625 183.097656 C 154.351562 183.6875 155.910156 183.566406 156.902344 182.671875 C 157.789062 181.871094 158.125 180.578125 157.960938 179.394531 C 157.800781 178.210938 157.195312 177.125 156.457031 176.1875 C 155.148438 174.519531 153.777344 173.519531 152.160156 175.324219 C 151.054688 176.5625 150.507812 178.34375 150.855469 179.980469 Z M 166.9375 166.636719 C 167.457031 166.65625 167.925781 166.335938 168.320312 165.992188 C 170.273438 164.285156 172.234375 158.601562 167.699219 159.195312 C 164.5 159.613281 163.195312 166.488281 166.9375 166.636719 Z M 208.023438 169.84375 C 207.703125 170.929688 207.578125 172.28125 208.433594 173.019531 C 208.816406 173.355469 209.332031 173.492188 209.828125 173.617188 C 210.226562 173.714844 210.644531 173.8125 211.050781 173.75 C 211.820312 173.632812 212.398438 172.980469 212.777344 172.300781 C 213.414062 171.160156 213.695312 169.824219 213.566406 168.523438 C 213.101562 163.734375 208.816406 167.171875 208.023438 169.84375 Z M 135.121094 212.816406 C 135.765625 212.820312 136.429688 212.671875 136.941406 212.277344 C 137.785156 211.632812 138.046875 210.421875 137.808594 209.386719 C 137.308594 207.238281 134.878906 204.292969 133.199219 207.007812 C 131.84375 209.195312 131.816406 212.78125 135.121094 212.816406 Z M 215.859375 196.269531 C 215.8125 196.84375 215.832031 197.441406 216.082031 197.960938 C 216.429688 198.675781 217.1875 199.132812 217.972656 199.242188 C 219.578125 199.472656 221.25 198.207031 221.460938 196.597656 C 222.011719 192.4375 216.246094 191.753906 215.859375 196.269531 Z M 139.441406 190.328125 C 139.613281 191.242188 140.402344 191.90625 141.210938 192.359375 C 142.167969 192.902344 143.261719 193.269531 144.351562 193.144531 C 145.441406 193.015625 146.507812 192.304688 146.824219 191.253906 C 146.941406 190.855469 146.949219 190.4375 146.957031 190.023438 C 146.976562 188.957031 147 187.894531 147.019531 186.832031 C 147.03125 186.152344 146.988281 185.351562 146.425781 184.972656 C 143.363281 182.902344 138.859375 187.226562 139.441406 190.328125 Z M 198.1875 173.28125 C 197.1875 174.476562 196.800781 176.203125 197.335938 177.671875 C 197.867188 179.136719 199.359375 180.238281 200.917969 180.183594 C 202.476562 180.125 203.929688 178.816406 204.03125 177.257812 C 204.097656 176.144531 203.527344 175.066406 202.738281 174.273438 C 201.453125 172.988281 199.652344 171.523438 198.1875 173.28125 Z M 241.324219 223.566406 C 239.5625 225.882812 236.726562 227.046875 234.238281 228.546875 C 231.746094 230.050781 229.304688 232.382812 229.351562 235.289062 C 229.382812 237.324219 230.625 239.101562 231.65625 240.851562 C 233.394531 243.808594 234.660156 247.09375 234.949219 250.511719 C 235.039062 251.585938 235.015625 252.730469 234.472656 253.660156 C 233.511719 255.296875 231.359375 255.683594 229.476562 255.886719 C 214.808594 257.457031 200.039062 257.820312 185.292969 258.183594 C 176.886719 258.394531 168.480469 258.601562 160.078125 258.808594 C 158.683594 258.84375 156.960938 259.21875 155.792969 258.460938 C 154.332031 257.511719 154.863281 256.695312 154.984375 255.699219 C 155.167969 254.984375 155.351562 254.265625 155.535156 253.546875 C 156.09375 250.941406 154.484375 248.441406 151.242188 247.046875 C 148.847656 246.019531 146.160156 245.777344 143.804688 244.65625 C 142.132812 243.863281 140.671875 242.632812 139.601562 241.121094 C 138.820312 240.015625 138.226562 238.695312 138.566406 237.300781 C 138.65625 236.941406 138.820312 236.597656 139.050781 236.3125 C 140.238281 234.859375 142.089844 235.433594 143.203125 236.503906 C 144.066406 237.332031 144.625 238.417969 145.339844 239.375 C 147.039062 241.640625 149.703125 243.15625 152.515625 243.460938 C 154.011719 243.625 155.789062 243.300781 156.5 241.972656 C 156.917969 241.1875 157.394531 238.335938 155.875 237.125 C 153.371094 235.128906 150.078125 234.222656 147.90625 231.867188 C 143.867188 227.492188 147.289062 220.054688 144.792969 214.648438 C 143.6875 212.25 141.535156 210.535156 139.8125 208.539062 C 138.089844 206.539062 136.714844 203.804688 137.613281 201.320312 C 138.21875 199.65625 139.867188 198.421875 141.632812 198.316406 C 143.402344 198.207031 145.1875 199.230469 145.992188 200.8125 C 146.855469 202.515625 146.582031 204.574219 147.125 206.40625 C 147.570312 207.917969 149.28125 209.398438 150.582031 208.507812 C 150.796875 208.359375 150.976562 208.15625 151.132812 207.941406 C 152.789062 205.683594 152.203125 202.523438 151.304688 199.871094 C 150.402344 197.21875 149.246094 194.410156 149.988281 191.707031 C 150.515625 189.789062 152.09375 188.269531 153.953125 187.597656 C 155.574219 187.015625 157.277344 188.269531 157.253906 189.992188 C 157.1875 195 157.121094 200.011719 157.054688 205.019531 C 157.039062 206.285156 157.019531 207.566406 156.652344 208.773438 C 156.21875 210.203125 155.328125 211.441406 154.585938 212.738281 C 153.152344 215.257812 152.25 218.203125 152.753906 221.058594 C 153.285156 224.066406 155.652344 226.867188 158.738281 227.113281 C 159.132812 227.144531 159.535156 227.128906 159.917969 227.023438 C 162.171875 226.394531 162.402344 223.699219 162.332031 221.535156 C 162.230469 218.5 162.128906 215.464844 162.027344 212.425781 C 161.984375 211.136719 161.949219 209.800781 162.449219 208.613281 C 162.871094 207.609375 163.640625 206.800781 164.226562 205.890625 C 166.519531 202.34375 165.917969 197.648438 164.488281 193.675781 C 163.058594 189.703125 160.882812 185.957031 160.175781 181.796875 C 159.652344 178.726562 160.128906 175.203125 162.492188 173.171875 C 163.40625 172.390625 164.648438 171.851562 165.921875 172.859375 C 166.503906 173.320312 166.886719 173.996094 167.035156 174.726562 C 167.4375 176.675781 166.550781 178.488281 166.285156 180.378906 C 166.066406 181.964844 166.464844 183.867188 167.90625 184.5625 C 169.226562 181.65625 170.582031 178.535156 170.070312 175.382812 C 169.855469 174.0625 169.316406 172.800781 169.191406 171.46875 C 168.921875 168.585938 170.835938 165.601562 173.671875 164.808594 C 174.492188 164.578125 175.386719 164.636719 176.117188 165.082031 C 177.351562 165.828125 177.328125 167.101562 177.175781 168.242188 C 176.246094 175.214844 171.304688 181.492188 171.851562 188.5 C 172.121094 192.007812 173.777344 195.433594 173.21875 198.90625 C 172.480469 203.515625 167.949219 207.679688 169.527344 212.074219 C 171.296875 213.257812 173.707031 211.589844 174.554688 209.636719 C 175.402344 207.683594 175.449219 205.414062 176.539062 203.585938 C 177.738281 201.589844 181.179688 200.609375 182.070312 203.128906 C 182.203125 203.496094 182.238281 203.890625 182.242188 204.28125 C 182.257812 207.140625 180.601562 209.671875 178.894531 211.945312 C 176.800781 214.734375 174.457031 217.5625 174.640625 221.324219 C 174.730469 223.144531 175.707031 224.859375 177.332031 225.683594 C 180.925781 227.5 184.578125 223.6875 185.269531 219.957031 C 185.929688 216.429688 185.082031 212.742188 185.832031 209.230469 C 186.492188 206.144531 188.355469 203.34375 188.542969 200.191406 C 188.957031 193.273438 181.484375 188.410156 179.847656 181.675781 C 179.433594 179.960938 179.429688 178.0625 180.535156 176.578125 C 181.023438 175.917969 181.726562 175.425781 182.527344 175.253906 C 185.007812 174.730469 186.707031 177.234375 186.988281 179.539062 C 187.242188 181.617188 186.761719 183.738281 187.078125 185.808594 C 187.894531 191.171875 193.746094 194.925781 193.917969 200.347656 C 194.015625 203.386719 192.242188 206.277344 192.449219 209.3125 C 192.625 211.941406 194.242188 214.214844 195.25 216.644531 C 196.621094 219.953125 196.867188 223.722656 195.9375 227.183594 C 195.511719 228.769531 194.84375 230.300781 194.667969 231.933594 C 194.441406 234.066406 195.253906 236.539062 197.769531 236.921875 C 199.136719 237.128906 200.492188 236.546875 201.433594 235.535156 C 203.378906 233.441406 203.421875 230.519531 203.261719 227.808594 C 203.074219 224.699219 202.683594 221.585938 202.949219 218.480469 C 203.382812 213.453125 205.503906 208.273438 203.765625 203.535156 C 202.472656 200.007812 199.3125 197.582031 196.847656 194.746094 C 194.296875 191.816406 192.390625 187.472656 194.566406 184.152344 C 194.8125 183.777344 195.136719 183.453125 195.535156 183.25 C 197.519531 182.261719 199.238281 184.84375 199.617188 186.957031 C 199.992188 189.039062 200.496094 191.707031 202.59375 192.085938 C 203.652344 192.273438 204.710938 191.769531 205.347656 190.90625 C 206.570312 189.261719 206.425781 187.273438 206.476562 185.367188 C 206.519531 183.71875 206.738281 182.019531 207.5625 180.589844 C 208.738281 178.554688 211.371094 177.167969 213.683594 178.988281 C 214.929688 179.972656 215.554688 181.546875 215.488281 183.136719 C 215.335938 186.636719 212.855469 189.148438 210.894531 191.835938 C 209.222656 194.125 207.832031 197.035156 208.738281 199.722656 C 209.355469 201.550781 210.941406 202.917969 211.597656 204.734375 C 212.726562 207.851562 210.871094 211.160156 210.136719 214.394531 C 209.59375 216.789062 209.675781 219.277344 209.523438 221.730469 C 209.390625 223.921875 209.078125 226.183594 209.785156 228.261719 C 210.488281 230.339844 212.636719 232.144531 214.753906 231.570312 C 216.988281 227.308594 213.683594 222.144531 214.335938 217.378906 C 214.582031 215.589844 215.488281 213.777344 217.25 213.101562 C 218.304688 212.699219 219.523438 212.839844 220.355469 213.601562 C 221.628906 214.761719 221.351562 216.636719 220.792969 218.160156 C 220.21875 219.734375 219.382812 221.328125 219.886719 223.019531 C 220.136719 223.859375 220.808594 224.539062 221.667969 224.703125 C 222.714844 224.898438 223.324219 224.261719 223.769531 223.578125 C 225.441406 221.011719 225.199219 217.660156 224.546875 214.667969 C 223.726562 210.894531 222.339844 207.09375 223.808594 203.230469 C 224.441406 201.558594 225.734375 200.179688 227.4375 199.648438 C 230.648438 198.648438 233.132812 201.019531 235.183594 203.199219 C 235.585938 203.625 236.007812 204.089844 236.097656 204.671875 C 236.179688 205.21875 235.953125 205.757812 235.71875 206.257812 C 234.726562 208.367188 233.527344 210.371094 232.136719 212.238281 C 230.398438 214.574219 228.761719 216.9375 227.898438 219.714844 C 227.34375 221.503906 227.335938 224.058594 229.378906 224.398438 C 230.597656 224.601562 231.789062 223.871094 232.265625 222.730469 C 233.261719 220.339844 234.316406 217.484375 236.859375 216.199219 C 237.699219 215.773438 238.660156 215.605469 239.582031 215.789062 C 243.007812 216.472656 243.242188 221.035156 241.324219 223.566406 " fill-opacity="1" fill-rule="nonzero"/></g><g clip-path="url(#bc9896ef9a)"><path fill="#ffffff" d="M 179.449219 196.617188 C 180.09375 196.621094 180.757812 196.472656 181.269531 196.082031 C 182.113281 195.433594 182.375 194.226562 182.132812 193.1875 C 181.636719 191.042969 179.207031 188.097656 177.523438 190.8125 C 176.167969 193 176.140625 196.585938 179.449219 196.617188 Z M 195.527344 200.800781 C 195.699219 201.710938 196.488281 202.375 197.292969 202.832031 C 198.25 203.371094 199.347656 203.742188 200.4375 203.613281 C 201.527344 203.488281 202.59375 202.777344 202.90625 201.722656 C 203.023438 201.328125 203.035156 200.90625 203.042969 200.492188 C 203.0625 199.429688 203.082031 198.367188 203.105469 197.300781 C 203.117188 196.621094 203.070312 195.824219 202.507812 195.441406 C 199.445312 193.375 194.945312 197.699219 195.527344 200.800781 Z M 167.382812 219.246094 C 168.132812 219.785156 169.214844 219.652344 169.984375 219.148438 C 172.144531 217.730469 173.167969 213.234375 169.433594 213.46875 C 167.089844 213.617188 165.277344 217.730469 167.382812 219.246094 Z M 240.53125 251.425781 C 239.140625 253.109375 236.882812 253.722656 234.847656 254.515625 C 231.929688 255.652344 229.148438 257.390625 227.371094 259.96875 C 225.59375 262.550781 224.984375 266.070312 226.378906 268.875 C 226.390625 268.894531 226.398438 268.917969 226.410156 268.9375 C 227.742188 271.550781 225.929688 274.652344 223 274.652344 L 157.578125 274.652344 C 154.21875 274.652344 152.449219 270.664062 154.703125 268.171875 C 154.855469 268.003906 155.015625 267.832031 155.1875 267.664062 C 156.0625 266.785156 156.65625 263.511719 152.910156 262.515625 C 152.402344 262.382812 151.878906 262.347656 151.359375 262.421875 C 148.65625 262.820312 146.921875 265.15625 144.457031 265.972656 C 141.84375 266.839844 139.015625 265.832031 136.449219 264.835938 C 134.789062 264.191406 133.046875 263.492188 132.484375 261.390625 C 132.117188 260.019531 132.449219 258.539062 133.328125 257.421875 C 135.605469 254.535156 139.992188 255.371094 141.96875 258.027344 C 142.917969 259.300781 143.402344 260.921875 144.863281 261.792969 C 145.523438 262.1875 146.347656 262.289062 147.027344 261.921875 C 148.140625 261.316406 148.132812 259.984375 148.054688 258.84375 C 147.914062 256.789062 147.765625 254.691406 146.992188 252.78125 C 146.21875 250.871094 144.695312 249.148438 142.691406 248.671875 C 141.105469 248.296875 139.214844 248.671875 138.113281 247.300781 C 137.234375 246.203125 137.402344 244.609375 138.371094 243.59375 C 140.121094 241.75 142.777344 242.101562 144.871094 243.089844 C 148.300781 244.710938 150.898438 247.992188 151.683594 251.703125 C 152.585938 255.960938 154.128906 256.316406 157.0625 255.84375 C 158.363281 255.632812 159.363281 254.566406 159.460938 253.25 C 160.140625 243.882812 155.375 234.144531 147.265625 229.308594 C 144.578125 227.703125 141.59375 226.601562 139.035156 224.796875 C 135.707031 222.445312 133.023438 218.449219 135.058594 214.171875 C 135.175781 213.925781 135.363281 213.71875 135.582031 213.558594 C 137.339844 212.289062 139.878906 212.53125 141.722656 213.679688 C 143.578125 214.839844 144.839844 216.75 145.804688 218.714844 C 146.773438 220.683594 147.507812 222.765625 148.636719 224.644531 C 150.007812 226.933594 151.949219 228.875 154.238281 230.246094 C 154.894531 230.640625 156.109375 230.867188 156.859375 230.722656 C 158.023438 229.429688 157.691406 227.335938 156.765625 225.863281 C 155.839844 224.390625 154.445312 223.269531 153.433594 221.851562 C 151.277344 218.832031 151.171875 214.492188 153.175781 211.367188 C 154.316406 209.585938 156.304688 208.144531 158.410156 208.386719 C 159.898438 208.554688 161.113281 209.660156 161.582031 211.082031 C 163.085938 215.625 159.046875 215.902344 158 218.351562 C 157.246094 220.117188 158.394531 222.101562 159.683594 223.523438 C 160.972656 224.941406 162.535156 226.34375 162.792969 228.246094 C 163.046875 230.105469 161.964844 231.871094 161.695312 233.726562 C 161.519531 234.941406 161.707031 236.203125 162.21875 237.320312 C 162.871094 238.726562 164.339844 240.007812 165.964844 239.167969 C 166.53125 238.878906 166.960938 238.371094 167.222656 237.789062 C 169.167969 233.429688 164.144531 228.039062 167.535156 224.390625 C 168.28125 223.589844 169.300781 223.09375 170.378906 222.914062 C 172.449219 222.570312 175.683594 222.675781 177.226562 224.667969 C 178.535156 226.359375 178.175781 228.839844 177.207031 230.746094 C 176.238281 232.652344 174.753906 234.261719 173.8125 236.183594 C 171.980469 239.921875 172.414062 244.324219 172.886719 248.457031 C 175.269531 250.261719 178.042969 252.777344 181.238281 250.019531 C 182.320312 249.089844 183.0625 247.816406 183.375 246.425781 C 184.382812 241.953125 181.96875 237.402344 182.933594 233.007812 C 183.429688 230.742188 184.777344 228.777344 185.75 226.671875 C 186.726562 224.570312 187.3125 222.046875 186.265625 219.980469 C 185.460938 218.394531 183.867188 217.40625 182.515625 216.257812 C 179.972656 214.089844 178.128906 211.105469 177.328125 207.859375 C 176.722656 205.40625 176.730469 202.667969 178.390625 200.601562 C 179.15625 199.652344 180.238281 198.992188 181.449219 198.855469 C 184.53125 198.511719 186.429688 201.476562 186.824219 204.257812 C 187.164062 206.675781 186.726562 209.152344 187.019531 211.578125 C 187.339844 214.265625 188.585938 216.828125 190.496094 218.742188 C 192.28125 218.636719 192.953125 217.175781 193.191406 215.402344 C 193.425781 213.625 193.273438 211.699219 194.230469 210.1875 C 195.136719 208.761719 196.9375 208.03125 198.617188 208.222656 C 200.457031 208.429688 202.105469 209.640625 203.085938 211.203125 C 203.265625 211.488281 203.417969 211.792969 203.492188 212.121094 C 203.957031 214.117188 201.988281 215.191406 200.628906 216.394531 C 199.296875 217.574219 198.40625 219.167969 197.199219 220.476562 C 195.996094 221.785156 194.234375 222.84375 192.503906 222.421875 C 191.011719 223.039062 190.207031 225.304688 189.972656 226.902344 C 189.660156 229.046875 189.34375 231.191406 189.027344 233.335938 C 188.792969 234.941406 188.558594 236.558594 188.703125 238.175781 C 189.105469 242.585938 192.328125 246.816406 191.085938 251.070312 C 191.699219 252.445312 192.789062 254.335938 194.238281 254.742188 C 196.441406 255.359375 198.359375 252.871094 198.582031 250.59375 C 198.804688 248.320312 198.085938 246 198.519531 243.757812 C 199.410156 239.160156 204.890625 235.828125 204.125 231.210938 C 203.734375 228.863281 201.726562 226.949219 201.648438 224.570312 C 201.53125 221.046875 205.488281 218.847656 206.835938 215.589844 C 207.765625 213.339844 207.367188 210.796875 207.457031 208.367188 C 207.554688 205.660156 208.671875 202.527344 211.578125 202.136719 C 213.433594 201.890625 215.171875 202.953125 216.015625 204.625 C 217.605469 207.761719 216.183594 211.164062 214.125 213.679688 C 212.429688 215.753906 210.292969 217.429688 208.570312 219.476562 C 207.15625 221.15625 205.984375 223.347656 206.535156 225.472656 C 206.863281 226.742188 207.761719 227.785156 208.269531 228.996094 C 209.554688 232.058594 208.164062 235.558594 206.503906 238.4375 C 204.84375 241.320312 202.835938 244.253906 202.847656 247.578125 C 202.859375 250.292969 202.601562 253.09375 205.207031 254.019531 C 207.585938 254.863281 210.292969 253.726562 211.304688 251.414062 C 212.394531 248.921875 211.1875 246.285156 210.316406 243.8125 C 209.476562 241.429688 209.046875 238.441406 210.988281 236.707031 C 211.335938 236.398438 211.777344 236.1875 212.242188 236.207031 C 213.699219 236.277344 213.957031 238.089844 214.199219 239.441406 C 214.433594 240.738281 215.867188 242.21875 216.808594 241.296875 C 218.699219 239.074219 217.769531 235.667969 216.476562 233.054688 C 215.183594 230.4375 213.566406 227.574219 214.402344 224.777344 C 215.464844 221.226562 219.84375 219.84375 221.875 216.742188 C 224.082031 213.375 223.082031 208.753906 224.820312 205.125 C 225.40625 203.902344 226.34375 202.773438 228.089844 202.898438 C 229.90625 203.03125 231.320312 204.492188 231.644531 206.285156 C 232.238281 209.601562 230.054688 212.324219 228.246094 214.941406 C 226.648438 217.25 225.214844 220.128906 226.191406 222.761719 C 228.191406 220.558594 230.191406 218.351562 232.191406 216.148438 C 233.054688 215.195312 234.089844 214.160156 235.492188 214.550781 C 236.515625 214.835938 237.207031 215.761719 237.378906 216.8125 C 238.050781 220.886719 234.5625 223.910156 231.199219 225.863281 C 228.121094 227.652344 224.621094 229.320312 223.082031 232.53125 C 221.152344 236.558594 222.992188 241.746094 220.722656 245.59375 C 219.8125 247.144531 218.332031 248.273438 217.257812 249.714844 C 216.183594 251.160156 215.566406 253.238281 216.585938 254.71875 C 216.996094 255.3125 217.625 255.730469 218.300781 255.992188 C 221.578125 257.265625 225.324219 254.785156 226.789062 251.585938 C 228.253906 248.386719 228.082031 244.71875 228.050781 241.199219 C 228.015625 237.273438 228.289062 233.058594 231.082031 230.125 C 231.714844 229.457031 232.613281 229.066406 233.53125 229.160156 C 235.152344 229.320312 235.648438 230.738281 235.710938 232.023438 C 236.007812 237.863281 229.5625 242.710938 230.578125 248.46875 C 231.710938 250.046875 234.441406 248.898438 235.605469 247.609375 C 236.054688 247.113281 236.566406 246.675781 237.175781 246.402344 C 241.320312 244.550781 242.328125 249.25 240.53125 251.425781 " fill-opacity="1" fill-rule="nonzero"/></g><g fill="#ffffff" fill-opacity="1"><g transform="translate(92.533113, 275.56138)"><g><path d="M 18.59375 0.882812 C 19.84375 0.464844 20.074219 -0.183594 19.335938 -1.207031 C 18.269531 -2.597656 17.664062 -5.65625 17.480469 -10.804688 C 17.292969 -15.394531 17.804688 -22.859375 18.5 -27.726562 C 18.683594 -29.164062 19.007812 -30.367188 18.824219 -31.761719 C 18.730469 -32.410156 17.480469 -33.105469 16.414062 -33.105469 L 16.460938 -33.105469 C 14.835938 -33.199219 14.09375 -32.78125 13.121094 -31.15625 C 9.96875 -25.777344 6.722656 -19.101562 4.265625 -13.539062 C 4.21875 -13.445312 4.21875 -13.351562 4.171875 -13.261719 L 4.125 -13.261719 C 3.015625 -13.351562 1.902344 -13.261719 0.882812 -13.074219 L 0.789062 -13.074219 C 0.601562 -12.980469 -0.230469 -12.890625 -0.417969 -12.425781 C -0.601562 -11.960938 -0.417969 -11.777344 0.371094 -11.3125 L 0.417969 -11.3125 C 1.019531 -10.988281 2.039062 -10.804688 2.875 -10.894531 L 2.921875 -10.894531 C 2.828125 -10.804688 2.734375 -10.664062 2.6875 -10.523438 C 1.667969 -8.484375 0.742188 -6.582031 -0.09375 -4.730469 C -0.695312 -3.382812 -1.207031 -2.085938 -1.808594 -1.019531 C -2.316406 -0.140625 -2.085938 0.324219 -0.925781 0.695312 C -0.046875 0.972656 1.34375 0.601562 1.667969 -0.046875 C 3.429688 -3.753906 5.007812 -7.046875 6.539062 -10.433594 C 6.769531 -10.988281 6.722656 -10.988281 7.046875 -10.988281 C 9.226562 -10.988281 11.3125 -11.265625 13.445312 -11.21875 C 13.863281 -11.21875 13.863281 -11.175781 13.910156 -9.828125 C 14.140625 -4.867188 14.789062 -1.902344 16.136719 0 C 16.597656 0.648438 17.851562 1.113281 18.59375 0.882812 Z M 7.929688 -13.445312 C 7.929688 -13.492188 7.976562 -13.585938 8.019531 -13.722656 C 9.96875 -17.664062 11.589844 -21.097656 12.9375 -24.015625 C 13.539062 -25.316406 14.234375 -26.519531 14.789062 -27.308594 C 13.957031 -23.136719 13.910156 -18.5 13.722656 -15.160156 C 13.722656 -15.160156 13.585938 -13.722656 13.632812 -13.722656 C 11.777344 -13.722656 9.691406 -13.492188 7.929688 -13.445312 Z M 7.929688 -13.445312 "/></g></g></g><g fill="#ffffff" fill-opacity="1"><g transform="translate(116.686302, 275.56138)"><g><path d="M 3.988281 -11.960938 C 4.683594 -14.1875 5.84375 -15.949219 7.324219 -17.203125 C 9.042969 -18.640625 9.78125 -18.453125 10.109375 -16.460938 C 10.246094 -15.71875 10.339844 -15.441406 10.523438 -15.023438 C 10.804688 -14.417969 12.285156 -13.769531 13.121094 -13.957031 C 13.957031 -14.234375 14.234375 -14.558594 14.09375 -15.394531 C 13.722656 -17.664062 12.519531 -19.148438 10.386719 -20.121094 C 8.578125 -20.910156 6.257812 -20.308594 4.496094 -18.546875 C 1.019531 -15.070312 -0.648438 -10.757812 -0.695312 -5.054688 C -0.742188 -1.25 3.570312 1.621094 6.675781 -0.09375 C 6.863281 -0.183594 7.09375 -0.324219 7.324219 -0.511719 C 7.234375 -0.140625 7.1875 0.277344 7.046875 0.835938 C 6.492188 3.292969 5.933594 5.148438 5.933594 8.207031 L 5.933594 9.179688 C 6.074219 12.054688 6.539062 13.261719 8.113281 14.140625 C 8.714844 14.511719 10.292969 14.328125 10.757812 13.863281 L 10.804688 13.863281 C 11.359375 13.214844 11.3125 12.890625 10.433594 12.472656 L 10.386719 12.425781 C 9.921875 12.242188 9.644531 11.542969 9.644531 10.292969 C 9.738281 5.933594 10.847656 1.667969 11.730469 -2.503906 C 12.195312 -4.820312 13.167969 -7.929688 13.308594 -10.199219 C 13.308594 -11.175781 12.703125 -11.730469 11.589844 -11.871094 L 11.636719 -11.871094 C 10.523438 -12.054688 9.738281 -11.542969 9.597656 -10.570312 C 9.410156 -8.902344 8.625 -6.492188 7.835938 -5.285156 C 7.046875 -4.082031 6.121094 -3.152344 4.820312 -2.363281 C 3.664062 -1.621094 2.6875 -2.734375 2.78125 -4.683594 C 2.875 -7.1875 3.292969 -9.691406 3.988281 -11.960938 Z M 3.988281 -11.960938 "/></g></g></g><g fill="#ffffff" fill-opacity="1"><g transform="translate(133.653803, 275.56138)"><g><path d="M 10.617188 -0.464844 C 12.84375 0.882812 15.855469 -0.601562 16.832031 -1.621094 C 18.546875 -3.382812 20.074219 -5.980469 19.890625 -6.953125 C 19.75 -7.648438 19.425781 -7.929688 18.730469 -8.019531 C 17.617188 -8.160156 17.386719 -7.28125 17.292969 -7.1875 C 16.226562 -5.796875 15.53125 -4.449219 14.652344 -3.570312 C 13.492188 -2.410156 13.121094 -2.132812 12.425781 -2.363281 C 12.148438 -2.457031 11.871094 -3.292969 11.960938 -4.082031 C 12.332031 -8.4375 13.539062 -12.890625 14.234375 -17.0625 C 14.464844 -18.40625 14.046875 -18.964844 12.75 -19.289062 C 10.847656 -19.707031 10.757812 -18.359375 10.570312 -17.664062 C 9.78125 -14.375 9.644531 -11.035156 8.34375 -8.160156 C 7.28125 -5.703125 6.445312 -3.429688 4.359375 -2.410156 C 3.246094 -1.949219 2.828125 -2.316406 2.828125 -4.035156 C 2.828125 -5.285156 3.152344 -7.976562 3.429688 -9.179688 C 4.21875 -12.84375 4.730469 -15.070312 5.378906 -18.546875 C 5.515625 -19.472656 5.101562 -19.984375 3.988281 -20.214844 L 3.941406 -20.214844 C 3.015625 -20.355469 2.132812 -19.890625 1.949219 -19.101562 C 1.667969 -17.664062 1.25 -16.367188 0.972656 -15.113281 C 0.324219 -11.960938 -0.648438 -8.4375 -0.925781 -5.425781 L -0.925781 -5.378906 C -0.925781 -5.007812 -0.882812 -4.777344 -0.882812 -4.496094 C -0.742188 -0.464844 3.800781 1.714844 7.140625 -0.554688 C 7.882812 -1.113281 8.300781 -1.4375 8.949219 -2.226562 C 8.996094 -1.992188 9.503906 -1.160156 10.617188 -0.464844 Z M 10.617188 -0.464844 "/></g></g></g><g fill="#ffffff" fill-opacity="1"><g transform="translate(151.687574, 275.56138)"><g><path d="M 3.429688 0.417969 C 5.472656 1.066406 7.464844 0.324219 8.996094 -1.667969 L 8.949219 -1.667969 L 9.367188 -2.132812 C 10.523438 0.464844 14.375 0.925781 16.691406 -1.34375 C 17.988281 -2.550781 19.148438 -4.125 19.984375 -5.75 C 20.355469 -6.492188 20.308594 -6.910156 19.707031 -7.742188 L 19.660156 -7.742188 C 19.148438 -8.34375 18.222656 -8.066406 17.527344 -6.863281 C 16.691406 -5.425781 16.273438 -5.007812 15.484375 -4.082031 C 14.835938 -3.246094 13.492188 -2.179688 12.703125 -2.503906 C 12.195312 -2.6875 12.101562 -3.753906 12.054688 -4.636719 C 11.960938 -6.953125 13.074219 -9.644531 13.398438 -11.359375 C 13.632812 -12.65625 13.351562 -13.121094 12.054688 -13.445312 C 10.847656 -13.769531 10.199219 -13.308594 9.828125 -12.054688 C 8.996094 -9.273438 8.113281 -6.257812 6.304688 -3.664062 C 5.609375 -2.734375 5.238281 -2.179688 4.636719 -1.949219 C 4.171875 -1.714844 4.3125 -1.714844 3.800781 -2.363281 C 3.058594 -3.246094 3.199219 -4.820312 3.058594 -6.398438 C 3.246094 -10.339844 4.359375 -13.816406 6.398438 -16.691406 C 8.34375 -19.335938 9.179688 -19.566406 10.433594 -17.988281 C 10.894531 -17.480469 10.757812 -16.832031 10.804688 -16.273438 C 10.847656 -15.484375 11.730469 -14.882812 12.703125 -14.976562 C 13.632812 -15.070312 14.046875 -15.578125 14.046875 -16.550781 C 13.957031 -18.546875 12.007812 -20.632812 9.597656 -21.1875 L 9.644531 -21.1875 C 8.34375 -21.558594 6.910156 -21.28125 5.84375 -20.445312 C 3.847656 -18.871094 2.550781 -17.203125 1.484375 -14.835938 C -0.046875 -11.359375 -1.113281 -8.300781 -0.554688 -4.496094 C -0.140625 -1.949219 1.113281 -0.371094 3.429688 0.417969 Z M 3.429688 0.417969 "/></g></g></g><g fill="#ffffff" fill-opacity="1"><g transform="translate(170.045853, 275.56138)"><g><path d="M 19.984375 -1.808594 C 21.976562 -3.800781 22.535156 -4.777344 22.300781 -6.351562 C 22.164062 -7.371094 21.699219 -7.882812 20.773438 -8.113281 L 20.863281 -8.113281 C 19.472656 -8.53125 19.242188 -7.046875 19.195312 -7 L 19.148438 -6.953125 C 16.832031 -2.734375 11.777344 0.046875 8.625 -1.855469 C 6.445312 -3.152344 5.378906 -4.914062 4.636719 -8.4375 C 4.171875 -10.710938 4.21875 -12.9375 4.777344 -15.578125 C 5.886719 -20.863281 7.464844 -23.878906 10.988281 -27.496094 C 12.75 -29.300781 14.28125 -30.460938 16.507812 -30.601562 C 17.664062 -30.695312 18.3125 -30.183594 18.5 -29.117188 C 18.824219 -27.167969 18.222656 -25.316406 17.0625 -24.386719 C 15.949219 -23.507812 15.855469 -23.367188 16.597656 -22.578125 C 17.246094 -21.839844 18.5 -21.699219 19.289062 -22.207031 C 21.097656 -23.320312 21.929688 -24.757812 21.976562 -26.84375 C 22.117188 -32.085938 16.460938 -34.21875 12.703125 -32.59375 C 10.0625 -31.433594 8.253906 -29.628906 6.769531 -27.910156 C 3.292969 -23.972656 1.855469 -21.003906 0.835938 -15.902344 C -0.140625 -10.710938 0.046875 -7.882812 1.667969 -4.867188 C 5.332031 2.039062 14.605469 3.570312 19.984375 -1.808594 Z M 19.984375 -1.808594 "/></g></g></g><g fill="#ffffff" fill-opacity="1"><g transform="translate(195.17259, 275.56138)"><g><path d="M 10.617188 -0.464844 C 12.84375 0.882812 15.855469 -0.601562 16.832031 -1.621094 C 18.546875 -3.382812 20.074219 -5.980469 19.890625 -6.953125 C 19.75 -7.648438 19.425781 -7.929688 18.730469 -8.019531 C 17.617188 -8.160156 17.386719 -7.28125 17.292969 -7.1875 C 16.226562 -5.796875 15.53125 -4.449219 14.652344 -3.570312 C 13.492188 -2.410156 13.121094 -2.132812 12.425781 -2.363281 C 12.148438 -2.457031 11.871094 -3.292969 11.960938 -4.082031 C 12.332031 -8.4375 13.539062 -12.890625 14.234375 -17.0625 C 14.464844 -18.40625 14.046875 -18.964844 12.75 -19.289062 C 10.847656 -19.707031 10.757812 -18.359375 10.570312 -17.664062 C 9.78125 -14.375 9.644531 -11.035156 8.34375 -8.160156 C 7.28125 -5.703125 6.445312 -3.429688 4.359375 -2.410156 C 3.246094 -1.949219 2.828125 -2.316406 2.828125 -4.035156 C 2.828125 -5.285156 3.152344 -7.976562 3.429688 -9.179688 C 4.21875 -12.84375 4.730469 -15.070312 5.378906 -18.546875 C 5.515625 -19.472656 5.101562 -19.984375 3.988281 -20.214844 L 3.941406 -20.214844 C 3.015625 -20.355469 2.132812 -19.890625 1.949219 -19.101562 C 1.667969 -17.664062 1.25 -16.367188 0.972656 -15.113281 C 0.324219 -11.960938 -0.648438 -8.4375 -0.925781 -5.425781 L -0.925781 -5.378906 C -0.925781 -5.007812 -0.882812 -4.777344 -0.882812 -4.496094 C -0.742188 -0.464844 3.800781 1.714844 7.140625 -0.554688 C 7.882812 -1.113281 8.300781 -1.4375 8.949219 -2.226562 C 8.996094 -1.992188 9.503906 -1.160156 10.617188 -0.464844 Z M 10.617188 -0.464844 "/></g></g></g><g fill="#ffffff" fill-opacity="1"><g transform="translate(213.206361, 275.56138)"><g><path d="M 8.019531 -0.371094 C 9.921875 -1.808594 12.007812 -5.148438 12.332031 -6.492188 C 12.519531 -7.464844 12.425781 -7.742188 11.636719 -8.113281 C 10.847656 -8.484375 10.246094 -8.207031 9.644531 -7.28125 C 8.808594 -6.121094 7.464844 -3.664062 5.65625 -2.363281 C 5.007812 -1.902344 4.035156 -1.53125 3.523438 -1.761719 C 3.292969 -1.808594 2.78125 -3.058594 2.78125 -3.710938 C 2.644531 -6.445312 3.246094 -10.433594 4.636719 -15.996094 C 5.84375 -21.140625 6.539062 -24.667969 7.605469 -31.066406 L 7.605469 -31.109375 C 7.648438 -31.714844 7.742188 -32.316406 7.789062 -33.011719 C 7.835938 -33.707031 7.28125 -34.171875 6.074219 -34.449219 C 5.285156 -34.632812 4.542969 -34.308594 4.359375 -33.566406 C 3.382812 -30.042969 3.105469 -27.496094 2.316406 -24.109375 C 1.667969 -21.050781 1.113281 -18.175781 0.554688 -15.207031 C -0.046875 -12.101562 -0.324219 -9.042969 -0.835938 -6.167969 C -0.972656 -5.101562 -0.925781 -4.082031 -0.554688 -2.550781 C 0.324219 0.742188 4.867188 1.949219 8.019531 -0.371094 Z M 8.019531 -0.371094 "/></g></g></g><g fill="#ffffff" fill-opacity="1"><g transform="translate(223.776284, 275.56138)"><g><path d="M 4.683594 0.511719 C 7.742188 0.648438 10.710938 -2.039062 11.589844 -3.105469 C 12.566406 -4.21875 13.167969 -5.285156 12.9375 -5.75 C 12.425781 -6.910156 11.035156 -7.046875 10.386719 -6.167969 C 9.457031 -4.867188 7.234375 -3.152344 6.074219 -2.597656 C 4.125 -1.621094 2.921875 -2.132812 2.875 -4.035156 C 2.78125 -7.742188 3.988281 -12.195312 4.777344 -15.625 C 5.148438 -17.203125 5.332031 -17.617188 5.378906 -17.617188 L 5.472656 -17.617188 C 5.980469 -17.710938 7.511719 -17.757812 8.019531 -17.804688 C 9.042969 -17.898438 9.597656 -18.175781 9.691406 -18.683594 C 9.738281 -19.378906 9.179688 -20.03125 8.207031 -20.121094 C 7.28125 -20.167969 6.816406 -20.074219 6.445312 -20.03125 C 5.980469 -19.984375 5.933594 -19.84375 6.027344 -20.492188 C 6.445312 -22.996094 6.816406 -23.507812 6.953125 -25.917969 C 7 -26.984375 6.628906 -27.496094 5.472656 -27.773438 C 4.359375 -28.050781 3.476562 -27.539062 3.246094 -26.382812 C 2.644531 -23.878906 2.597656 -23.273438 2.039062 -21.003906 C 1.855469 -19.566406 1.992188 -19.75 1.621094 -19.75 C 0.417969 -19.707031 -0.464844 -19.378906 -0.601562 -19.007812 L -0.648438 -18.964844 C -0.835938 -18.222656 -0.417969 -17.804688 0.464844 -17.710938 L 0.511719 -17.710938 C 1.621094 -17.710938 1.484375 -17.941406 1.296875 -17.203125 C 1.160156 -16.832031 0.835938 -15.625 0.789062 -15.207031 C 0.464844 -12.101562 -0.882812 -8.34375 -0.925781 -5.285156 C -0.925781 -1.808594 1.160156 0.324219 4.683594 0.511719 Z M 4.683594 0.511719 "/></g></g></g><g fill="#ffffff" fill-opacity="1"><g transform="translate(234.948875, 275.56138)"><g><path d="M 10.617188 -0.464844 C 12.84375 0.882812 15.855469 -0.601562 16.832031 -1.621094 C 18.546875 -3.382812 20.074219 -5.980469 19.890625 -6.953125 C 19.75 -7.648438 19.425781 -7.929688 18.730469 -8.019531 C 17.617188 -8.160156 17.386719 -7.28125 17.292969 -7.1875 C 16.226562 -5.796875 15.53125 -4.449219 14.652344 -3.570312 C 13.492188 -2.410156 13.121094 -2.132812 12.425781 -2.363281 C 12.148438 -2.457031 11.871094 -3.292969 11.960938 -4.082031 C 12.332031 -8.4375 13.539062 -12.890625 14.234375 -17.0625 C 14.464844 -18.40625 14.046875 -18.964844 12.75 -19.289062 C 10.847656 -19.707031 10.757812 -18.359375 10.570312 -17.664062 C 9.78125 -14.375 9.644531 -11.035156 8.34375 -8.160156 C 7.28125 -5.703125 6.445312 -3.429688 4.359375 -2.410156 C 3.246094 -1.949219 2.828125 -2.316406 2.828125 -4.035156 C 2.828125 -5.285156 3.152344 -7.976562 3.429688 -9.179688 C 4.21875 -12.84375 4.730469 -15.070312 5.378906 -18.546875 C 5.515625 -19.472656 5.101562 -19.984375 3.988281 -20.214844 L 3.941406 -20.214844 C 3.015625 -20.355469 2.132812 -19.890625 1.949219 -19.101562 C 1.667969 -17.664062 1.25 -16.367188 0.972656 -15.113281 C 0.324219 -11.960938 -0.648438 -8.4375 -0.925781 -5.425781 L -0.925781 -5.378906 C -0.925781 -5.007812 -0.882812 -4.777344 -0.882812 -4.496094 C -0.742188 -0.464844 3.800781 1.714844 7.140625 -0.554688 C 7.882812 -1.113281 8.300781 -1.4375 8.949219 -2.226562 C 8.996094 -1.992188 9.503906 -1.160156 10.617188 -0.464844 Z M 10.617188 -0.464844 "/></g></g></g><g fill="#ffffff" fill-opacity="1"><g transform="translate(252.982646, 275.56138)"><g><path d="M 12.519531 -21.328125 C 12.007812 -21.558594 11.035156 -21.652344 10.152344 -21.46875 C 7.648438 -20.957031 6.304688 -19.472656 5.007812 -18.035156 L 4.867188 -17.898438 C 4.914062 -18.035156 4.914062 -18.175781 4.914062 -18.269531 L 4.914062 -18.40625 C 5.101562 -19.566406 4.589844 -20.214844 3.292969 -20.402344 L 3.339844 -20.402344 C 1.484375 -20.773438 1.667969 -19.425781 1.578125 -18.917969 C 0.925781 -15.902344 0.464844 -12.796875 -0.09375 -9.921875 C -0.601562 -7.140625 -1.019531 -4.542969 -1.484375 -1.808594 C -1.714844 -0.324219 -1.4375 0.277344 -0.230469 0.371094 L -0.277344 0.371094 C 1.019531 0.554688 2.179688 -0.09375 2.273438 -1.066406 C 2.457031 -2.921875 2.644531 -4.40625 2.921875 -5.5625 C 3.339844 -7.511719 3.476562 -8.949219 4.171875 -10.617188 C 5.84375 -14.699219 7.835938 -18.222656 11.871094 -19.289062 L 11.777344 -19.289062 C 12.566406 -19.425781 13.492188 -19.890625 13.539062 -20.214844 C 13.585938 -20.679688 13.261719 -21.003906 12.519531 -21.328125 Z M 12.519531 -21.328125 "/></g></g></g><g fill="#ffffff" fill-opacity="1"><g transform="translate(266.519564, 275.56138)"><g><path d="M 16.738281 -8.253906 C 15.53125 -8.578125 15.070312 -7.417969 14.929688 -7.234375 C 12.9375 -4.683594 12.148438 -3.894531 10.0625 -2.6875 C 7.371094 -1.113281 5.285156 -1.019531 4.171875 -2.550781 C 3.476562 -3.476562 3.058594 -4.867188 3.015625 -6.539062 C 3.015625 -7.648438 3.105469 -8.625 3.292969 -9.273438 C 3.429688 -9.691406 4.449219 -9.410156 5.472656 -9.550781 C 9.921875 -10.109375 13.445312 -14.558594 12.65625 -18.59375 C 12.148438 -21.1875 8.902344 -22.535156 6.582031 -21.1875 C 5.472656 -20.539062 4.496094 -19.75 3.753906 -18.871094 C 1.34375 -15.625 0.09375 -13.027344 -0.554688 -8.855469 C -0.835938 -7.09375 -0.601562 -5.84375 -0.511719 -4.496094 C -0.046875 -0.554688 4.171875 1.53125 9.132812 0.464844 C 12.101562 -0.230469 14.789062 -2.039062 16.921875 -4.777344 L 16.96875 -4.820312 C 17.527344 -5.703125 17.710938 -6.257812 17.804688 -6.953125 C 17.851562 -7.742188 17.664062 -8.019531 16.738281 -8.253906 Z M 3.800781 -11.683594 C 4.21875 -13.308594 5.101562 -15.300781 5.886719 -16.507812 C 6.582031 -17.574219 7.417969 -18.359375 8.160156 -18.871094 C 8.949219 -19.378906 9.042969 -19.425781 9.367188 -19.195312 C 9.503906 -19.101562 9.691406 -18.269531 9.597656 -17.804688 C 9.410156 -16.460938 8.578125 -14.929688 7.976562 -14.1875 C 6.722656 -12.890625 5.65625 -12.054688 4.21875 -11.730469 C 3.894531 -11.636719 3.753906 -11.589844 3.753906 -11.542969 C 3.753906 -11.589844 3.800781 -11.589844 3.800781 -11.683594 Z M 3.800781 -11.683594 "/></g></g></g></svg>