<svg xmlns="http://www.w3.org/2000/svg" xmlns:xlink="http://www.w3.org/1999/xlink" width="500" zoomAndPan="magnify" viewBox="0 0 375 374.999991" height="500" preserveAspectRatio="xMidYMid meet" version="1.0"><defs><g/><clipPath id="f4548c39b2"><path d="M 107 71.875 L 242.675781 71.875 L 242.675781 197.125 L 107 197.125 Z M 107 71.875 " clip-rule="nonzero"/></clipPath></defs><rect x="-37.5" width="450" fill="#ffffff" y="-37.499999" height="449.999989" fill-opacity="1"/><rect x="-37.5" width="450" fill="#ffffff" y="-37.499999" height="449.999989" fill-opacity="1"/><rect x="-37.5" width="450" fill="#ffffff" y="-37.499999" height="449.999989" fill-opacity="1"/><g clip-path="url(#f4548c39b2)"><path fill="#00bf63" d="M 162.070312 149.347656 C 162.070312 147.359375 163.019531 145.589844 164.488281 144.472656 C 163.835938 144.335938 163.160156 144.261719 162.464844 144.261719 C 157.097656 144.261719 152.742188 148.621094 152.742188 153.996094 C 152.742188 159.371094 157.097656 163.730469 162.464844 163.730469 C 167.835938 163.730469 172.1875 159.371094 172.1875 153.996094 C 172.1875 153.988281 172.1875 153.984375 172.1875 153.976562 C 171.113281 154.90625 169.714844 155.472656 168.183594 155.472656 C 164.808594 155.472656 162.070312 152.730469 162.070312 149.347656 Z M 216.464844 155.472656 C 213.085938 155.472656 210.347656 152.730469 210.347656 149.347656 C 210.347656 147.359375 211.296875 145.589844 212.765625 144.472656 C 212.113281 144.335938 211.4375 144.261719 210.746094 144.261719 C 205.375 144.261719 201.023438 148.621094 201.023438 153.996094 C 201.023438 159.371094 205.375 163.730469 210.746094 163.730469 C 216.117188 163.730469 220.46875 159.371094 220.46875 153.996094 C 220.46875 153.988281 220.46875 153.984375 220.46875 153.976562 C 219.394531 154.90625 217.996094 155.472656 216.464844 155.472656 Z M 215.933594 173.652344 C 205.105469 173.652344 196.296875 164.835938 196.296875 153.996094 C 196.296875 143.15625 205.105469 134.335938 215.933594 134.335938 C 226.761719 134.335938 235.566406 143.15625 235.566406 153.996094 C 235.566406 164.835938 226.761719 173.652344 215.933594 173.652344 Z M 158.222656 173.652344 C 147.398438 173.652344 138.589844 164.835938 138.589844 153.996094 C 138.589844 143.15625 147.398438 134.335938 158.222656 134.335938 C 169.050781 134.335938 177.859375 143.15625 177.859375 153.996094 C 177.859375 164.835938 169.050781 173.652344 158.222656 173.652344 Z M 240.042969 148.085938 C 237.355469 137.066406 227.40625 129.179688 215.96875 129.179688 C 210.277344 129.179688 204.71875 131.160156 200.316406 134.753906 C 196.363281 137.984375 193.488281 142.386719 192.113281 147.265625 C 190.484375 146.867188 188.785156 146.675781 187.089844 146.683594 C 185.367188 146.683594 183.675781 146.867188 182.046875 147.265625 C 180.671875 142.386719 177.796875 137.984375 173.839844 134.753906 C 169.4375 131.160156 163.878906 129.179688 158.1875 129.179688 C 146.75 129.179688 136.800781 137.066406 134.117188 148.085938 C 132.644531 148.242188 131.492188 149.492188 131.492188 151.003906 L 131.492188 152.203125 C 131.492188 153.46875 132.296875 154.550781 133.421875 154.960938 C 133.933594 168.199219 144.847656 178.8125 158.1875 178.8125 C 171.855469 178.8125 182.976562 167.679688 182.976562 153.996094 C 182.976562 153.628906 182.964844 153.261719 182.949219 152.878906 C 184.269531 152.511719 185.648438 152.335938 187.085938 152.332031 C 188.5 152.324219 189.886719 152.511719 191.210938 152.878906 C 191.191406 153.261719 191.183594 153.628906 191.183594 153.996094 C 191.183594 167.679688 202.300781 178.8125 215.96875 178.8125 C 229.3125 178.8125 240.226562 168.199219 240.734375 154.960938 C 241.859375 154.550781 242.664062 153.46875 242.664062 152.203125 L 242.664062 151.003906 C 242.664062 149.492188 241.515625 148.242188 240.042969 148.085938 Z M 189.257812 194.128906 L 183.421875 194.128906 C 182.597656 194.128906 181.929688 194.796875 181.929688 195.621094 C 181.929688 196.445312 182.597656 197.109375 183.421875 197.109375 L 189.257812 197.109375 C 190.078125 197.109375 190.746094 196.445312 190.746094 195.621094 C 190.746094 194.796875 190.078125 194.128906 189.257812 194.128906 Z M 130.109375 138.15625 C 129.953125 138.121094 129.761719 138.074219 129.539062 138.023438 C 129.316406 137.960938 129.0625 137.886719 128.78125 137.804688 C 128.210938 137.636719 127.527344 137.410156 126.757812 137.097656 C 125.992188 136.78125 125.128906 136.40625 124.234375 135.898438 C 123.339844 135.402344 122.390625 134.808594 121.449219 134.097656 C 120.507812 133.386719 119.5625 132.5625 118.664062 131.636719 C 118.550781 131.519531 118.4375 131.40625 118.324219 131.289062 C 118.214844 131.167969 118.105469 131.046875 117.996094 130.925781 C 117.773438 130.683594 117.558594 130.433594 117.347656 130.175781 C 116.917969 129.667969 116.507812 129.132812 116.109375 128.585938 C 115.320312 127.484375 114.605469 126.304688 113.957031 125.09375 C 113.316406 123.878906 112.757812 122.621094 112.277344 121.363281 C 112.152344 121.050781 112.042969 120.734375 111.925781 120.417969 C 111.820312 120.101562 111.710938 119.789062 111.609375 119.472656 C 111.410156 118.847656 111.222656 118.222656 111.058594 117.605469 C 110.722656 116.367188 110.464844 115.160156 110.257812 114.007812 C 110.054688 112.855469 109.914062 111.757812 109.8125 110.746094 C 109.707031 109.730469 109.65625 108.800781 109.625 107.972656 C 109.59375 107.148438 109.597656 106.429688 109.609375 105.835938 C 109.617188 105.246094 109.652344 104.78125 109.671875 104.464844 C 109.695312 104.148438 109.714844 103.980469 109.714844 103.980469 C 109.714844 103.980469 109.726562 104.148438 109.75 104.464844 C 109.773438 104.777344 109.824219 105.238281 109.886719 105.824219 C 109.949219 106.410156 110.042969 107.117188 110.15625 107.925781 C 110.273438 108.734375 110.425781 109.644531 110.605469 110.632812 C 110.792969 111.617188 111.019531 112.679688 111.289062 113.792969 C 111.558594 114.902344 111.875 116.070312 112.246094 117.257812 C 112.621094 118.445312 113.046875 119.65625 113.539062 120.863281 C 114.03125 122.070312 114.574219 123.273438 115.195312 124.4375 C 115.8125 125.605469 116.492188 126.734375 117.222656 127.800781 C 117.59375 128.332031 117.96875 128.851562 118.363281 129.351562 C 118.558594 129.597656 118.753906 129.84375 118.960938 130.082031 C 119.058594 130.203125 119.160156 130.320312 119.261719 130.441406 C 119.363281 130.554688 119.46875 130.671875 119.570312 130.789062 C 120.390625 131.703125 121.25 132.539062 122.109375 133.273438 C 122.96875 134.011719 123.828125 134.65625 124.652344 135.210938 C 124.859375 135.347656 125.066406 135.480469 125.265625 135.609375 C 125.46875 135.734375 125.667969 135.855469 125.863281 135.972656 C 126.054688 136.09375 126.246094 136.199219 126.433594 136.308594 C 126.621094 136.410156 126.804688 136.519531 126.984375 136.613281 C 127.703125 136.988281 128.339844 137.304688 128.875 137.542969 C 129.144531 137.660156 129.386719 137.765625 129.59375 137.859375 C 129.804688 137.945312 129.984375 138.019531 130.132812 138.082031 C 130.425781 138.199219 130.582031 138.265625 130.582031 138.265625 C 130.582031 138.265625 130.417969 138.226562 130.109375 138.15625 Z M 137.0625 108.824219 C 136.882812 108.640625 136.613281 108.382812 136.277344 108.039062 C 135.953125 107.6875 135.574219 107.242188 135.140625 106.730469 C 134.941406 106.460938 134.726562 106.175781 134.5 105.875 C 134.390625 105.722656 134.269531 105.574219 134.164062 105.40625 C 134.054688 105.242188 133.945312 105.070312 133.832031 104.898438 C 133.609375 104.550781 133.367188 104.191406 133.15625 103.796875 C 133.046875 103.601562 132.9375 103.402344 132.824219 103.203125 C 132.765625 103.101562 132.710938 103 132.652344 102.894531 C 132.597656 102.792969 132.550781 102.683594 132.496094 102.578125 C 132.394531 102.367188 132.289062 102.148438 132.183594 101.929688 C 132.078125 101.707031 131.964844 101.488281 131.871094 101.253906 C 131.777344 101.023438 131.679688 100.789062 131.582031 100.554688 C 131.484375 100.320312 131.382812 100.082031 131.300781 99.835938 C 131.214844 99.59375 131.125 99.34375 131.039062 99.097656 C 130.996094 98.972656 130.949219 98.847656 130.90625 98.722656 C 130.871094 98.59375 130.832031 98.46875 130.792969 98.339844 C 130.640625 97.828125 130.472656 97.3125 130.351562 96.78125 C 130.289062 96.515625 130.222656 96.25 130.15625 95.984375 C 130.09375 95.714844 130.042969 95.445312 129.988281 95.175781 C 129.9375 94.902344 129.878906 94.636719 129.832031 94.363281 L 129.703125 93.542969 L 129.640625 93.132812 L 129.59375 92.722656 C 129.558594 92.449219 129.527344 92.171875 129.496094 91.902344 C 129.460938 91.628906 129.449219 91.355469 129.425781 91.082031 C 129.40625 90.808594 129.378906 90.535156 129.367188 90.265625 C 129.34375 89.722656 129.308594 89.183594 129.3125 88.652344 C 129.308594 88.386719 129.304688 88.125 129.304688 87.859375 C 129.304688 87.597656 129.3125 87.339844 129.320312 87.082031 C 129.339844 86.046875 129.414062 85.054688 129.5 84.113281 C 129.601562 83.175781 129.714844 82.292969 129.851562 81.480469 C 129.917969 81.074219 129.996094 80.6875 130.066406 80.320312 C 130.144531 79.953125 130.214844 79.605469 130.289062 79.28125 C 130.433594 78.628906 130.589844 78.070312 130.71875 77.609375 C 130.847656 77.148438 130.96875 76.792969 131.050781 76.546875 C 131.132812 76.304688 131.179688 76.179688 131.179688 76.179688 C 131.179688 76.179688 131.164062 76.3125 131.125 76.566406 C 131.089844 76.820312 131.050781 77.191406 130.992188 77.664062 C 130.933594 78.136719 130.878906 78.707031 130.816406 79.367188 C 130.757812 80.023438 130.703125 80.765625 130.65625 81.574219 C 130.644531 81.773438 130.632812 81.980469 130.621094 82.191406 C 130.609375 82.398438 130.601562 82.613281 130.59375 82.832031 C 130.570312 83.265625 130.5625 83.714844 130.550781 84.179688 C 130.535156 85.101562 130.527344 86.074219 130.558594 87.082031 C 130.574219 88.085938 130.644531 89.121094 130.71875 90.171875 C 130.765625 90.695312 130.820312 91.222656 130.875 91.753906 C 130.910156 92.015625 130.941406 92.28125 130.972656 92.542969 L 131.023438 92.941406 L 131.085938 93.335938 L 131.207031 94.125 C 131.25 94.390625 131.304688 94.648438 131.351562 94.910156 C 131.402344 95.171875 131.449219 95.433594 131.5 95.691406 C 131.558594 95.949219 131.617188 96.203125 131.671875 96.460938 C 131.777344 96.976562 131.925781 97.472656 132.050781 97.972656 C 132.082031 98.097656 132.113281 98.222656 132.144531 98.34375 C 132.183594 98.464844 132.21875 98.589844 132.257812 98.710938 C 132.332031 98.953125 132.402344 99.191406 132.476562 99.429688 C 132.542969 99.671875 132.628906 99.90625 132.707031 100.136719 C 132.789062 100.367188 132.867188 100.597656 132.945312 100.824219 C 133.019531 101.054688 133.113281 101.273438 133.199219 101.492188 C 133.285156 101.710938 133.371094 101.925781 133.453125 102.140625 C 133.496094 102.246094 133.535156 102.355469 133.582031 102.457031 C 133.628906 102.558594 133.675781 102.660156 133.71875 102.765625 C 133.8125 102.96875 133.902344 103.167969 133.988281 103.367188 C 134.15625 103.765625 134.355469 104.128906 134.535156 104.492188 C 134.625 104.671875 134.710938 104.847656 134.796875 105.019531 C 134.882812 105.191406 134.984375 105.351562 135.074219 105.511719 C 135.25 105.832031 135.421875 106.136719 135.582031 106.425781 C 135.757812 106.703125 135.925781 106.957031 136.074219 107.199219 C 136.226562 107.441406 136.359375 107.671875 136.496094 107.863281 C 136.769531 108.25 136.980469 108.558594 137.125 108.769531 C 137.269531 108.980469 137.34375 109.09375 137.34375 109.09375 C 137.34375 109.09375 137.246094 109 137.0625 108.824219 Z M 133.097656 141.796875 C 134.9375 138.023438 137.621094 134.671875 140.945312 132.050781 C 145.847656 128.191406 151.972656 126.0625 158.1875 126.0625 C 164.59375 126.0625 170.851562 128.292969 175.808594 132.339844 C 177.449219 133.679688 178.929688 135.214844 180.226562 136.894531 C 188.441406 134.566406 196.207031 131.878906 202.6875 129.433594 C 204.738281 128.324219 206.917969 127.476562 209.175781 126.910156 C 216.121094 124.117188 220.46875 122.089844 220.46875 122.089844 C 220.46875 122.089844 158.890625 129.179688 131.492188 71.878906 C 131.492188 71.878906 116.460938 97.851562 142.363281 117.480469 C 142.363281 117.480469 119.03125 122.527344 108.761719 95.652344 C 108.761719 95.652344 100.917969 133.484375 131.492188 141.417969 C 132.019531 141.554688 132.554688 141.679688 133.097656 141.796875 Z M 197.414062 183.445312 C 186.414062 189.351562 176.28125 183.71875 175.855469 183.476562 C 174.746094 182.839844 173.335938 183.222656 172.695312 184.328125 C 172.058594 185.4375 172.4375 186.859375 173.546875 187.5 C 173.882812 187.695312 179.335938 190.769531 186.839844 190.769531 C 190.691406 190.769531 195.085938 189.960938 199.601562 187.535156 C 200.730469 186.929688 201.15625 185.523438 200.550781 184.394531 C 199.945312 183.265625 198.539062 182.839844 197.414062 183.445312 " fill-opacity="1" fill-rule="nonzero"/></g><g fill="#00bf63" fill-opacity="1"><g transform="translate(100.924735, 250.604889)"><g><path d="M 41.296875 -39.875 L 41.296875 0 L 33.71875 0 L 13.84375 -24.203125 L 13.84375 0 L 4.734375 0 L 4.734375 -39.875 L 12.359375 -39.875 L 32.171875 -15.65625 L 32.171875 -39.875 Z M 41.296875 -39.875 "/></g></g></g><g fill="#00bf63" fill-opacity="1"><g transform="translate(146.944112, 250.604889)"><g><path d="M 35.59375 -7.40625 L 35.59375 0 L 4.734375 0 L 4.734375 -39.875 L 34.859375 -39.875 L 34.859375 -32.46875 L 13.890625 -32.46875 L 13.890625 -23.8125 L 32.40625 -23.8125 L 32.40625 -16.625 L 13.890625 -16.625 L 13.890625 -7.40625 Z M 35.59375 -7.40625 "/></g></g></g><g fill="#00bf63" fill-opacity="1"><g transform="translate(185.160701, 250.604889)"><g><path d="M 30.125 0 L 22.4375 -11.109375 L 13.953125 -11.109375 L 13.953125 0 L 4.734375 0 L 4.734375 -39.875 L 21.984375 -39.875 C 25.515625 -39.875 28.578125 -39.285156 31.171875 -38.109375 C 33.773438 -36.929688 35.78125 -35.257812 37.1875 -33.09375 C 38.59375 -30.925781 39.296875 -28.363281 39.296875 -25.40625 C 39.296875 -22.4375 38.582031 -19.878906 37.15625 -17.734375 C 35.738281 -15.585938 33.71875 -13.945312 31.09375 -12.8125 L 40.03125 0 Z M 29.953125 -25.40625 C 29.953125 -27.644531 29.226562 -29.359375 27.78125 -30.546875 C 26.34375 -31.742188 24.238281 -32.34375 21.46875 -32.34375 L 13.953125 -32.34375 L 13.953125 -18.453125 L 21.46875 -18.453125 C 24.238281 -18.453125 26.34375 -19.054688 27.78125 -20.265625 C 29.226562 -21.484375 29.953125 -23.195312 29.953125 -25.40625 Z M 29.953125 -25.40625 "/></g></g></g><g fill="#00bf63" fill-opacity="1"><g transform="translate(227.022388, 250.604889)"><g><path d="M 4.734375 -39.875 L 22.84375 -39.875 C 27.164062 -39.875 30.988281 -39.046875 34.3125 -37.390625 C 37.632812 -35.734375 40.21875 -33.40625 42.0625 -30.40625 C 43.90625 -27.40625 44.828125 -23.914062 44.828125 -19.9375 C 44.828125 -15.945312 43.90625 -12.453125 42.0625 -9.453125 C 40.21875 -6.453125 37.632812 -4.125 34.3125 -2.46875 C 30.988281 -0.820312 27.164062 0 22.84375 0 L 4.734375 0 Z M 22.375 -7.578125 C 26.363281 -7.578125 29.546875 -8.6875 31.921875 -10.90625 C 34.296875 -13.125 35.484375 -16.132812 35.484375 -19.9375 C 35.484375 -23.726562 34.296875 -26.734375 31.921875 -28.953125 C 29.546875 -31.179688 26.363281 -32.296875 22.375 -32.296875 L 13.953125 -32.296875 L 13.953125 -7.578125 Z M 22.375 -7.578125 "/></g></g></g><g fill="#00bf63" fill-opacity="1"><g transform="translate(100.924735, 290.690237)"><g><path d="M 15.421875 0.40625 C 12.796875 0.40625 10.257812 0 7.8125 -0.8125 C 5.363281 -1.632812 3.441406 -2.695312 2.046875 -4 L 3.890625 -7.890625 C 5.222656 -6.691406 6.925781 -5.71875 9 -4.96875 C 11.082031 -4.21875 13.222656 -3.84375 15.421875 -3.84375 C 18.316406 -3.84375 20.476562 -4.332031 21.90625 -5.3125 C 23.34375 -6.300781 24.0625 -7.609375 24.0625 -9.234375 C 24.0625 -10.429688 23.671875 -11.40625 22.890625 -12.15625 C 22.109375 -12.90625 21.140625 -13.476562 19.984375 -13.875 C 18.835938 -14.28125 17.21875 -14.726562 15.125 -15.21875 C 12.5 -15.851562 10.378906 -16.488281 8.765625 -17.125 C 7.148438 -17.757812 5.765625 -18.734375 4.609375 -20.046875 C 3.460938 -21.359375 2.890625 -23.128906 2.890625 -25.359375 C 2.890625 -27.222656 3.378906 -28.90625 4.359375 -30.40625 C 5.347656 -31.90625 6.835938 -33.101562 8.828125 -34 C 10.828125 -34.894531 13.3125 -35.34375 16.28125 -35.34375 C 18.34375 -35.34375 20.367188 -35.078125 22.359375 -34.546875 C 24.359375 -34.015625 26.070312 -33.25 27.5 -32.25 L 25.859375 -28.25 C 24.390625 -29.1875 22.820312 -29.894531 21.15625 -30.375 C 19.5 -30.851562 17.875 -31.09375 16.28125 -31.09375 C 13.445312 -31.09375 11.320312 -30.578125 9.90625 -29.546875 C 8.488281 -28.515625 7.78125 -27.1875 7.78125 -25.5625 C 7.78125 -24.363281 8.179688 -23.390625 8.984375 -22.640625 C 9.785156 -21.890625 10.773438 -21.304688 11.953125 -20.890625 C 13.140625 -20.472656 14.75 -20.03125 16.78125 -19.5625 C 19.40625 -18.9375 21.515625 -18.304688 23.109375 -17.671875 C 24.710938 -17.035156 26.085938 -16.066406 27.234375 -14.765625 C 28.378906 -13.472656 28.953125 -11.726562 28.953125 -9.53125 C 28.953125 -7.707031 28.453125 -6.035156 27.453125 -4.515625 C 26.453125 -3.003906 24.9375 -1.804688 22.90625 -0.921875 C 20.882812 -0.0351562 18.390625 0.40625 15.421875 0.40625 Z M 15.421875 0.40625 "/></g></g></g><g fill="#00bf63" fill-opacity="1"><g transform="translate(131.93003, 290.690237)"><g><path d="M 18.875 -34.953125 C 23.394531 -34.953125 26.953125 -33.867188 29.546875 -31.703125 C 32.148438 -29.535156 33.453125 -26.554688 33.453125 -22.765625 C 33.453125 -18.972656 32.148438 -15.992188 29.546875 -13.828125 C 26.953125 -11.660156 23.394531 -10.578125 18.875 -10.578125 L 10.234375 -10.578125 L 10.234375 0 L 5.234375 0 L 5.234375 -34.953125 Z M 18.71875 -14.921875 C 21.882812 -14.921875 24.296875 -15.59375 25.953125 -16.9375 C 27.617188 -18.289062 28.453125 -20.234375 28.453125 -22.765625 C 28.453125 -25.296875 27.617188 -27.234375 25.953125 -28.578125 C 24.296875 -29.929688 21.882812 -30.609375 18.71875 -30.609375 L 10.234375 -30.609375 L 10.234375 -14.921875 Z M 18.71875 -14.921875 "/></g></g></g><g fill="#00bf63" fill-opacity="1"><g transform="translate(167.978057, 290.690237)"><g><path d="M 27.5 -8.734375 L 8.9375 -8.734375 L 5.09375 0 L -0.046875 0 L 15.78125 -34.953125 L 20.71875 -34.953125 L 36.59375 0 L 31.34375 0 Z M 25.765625 -12.734375 L 18.21875 -29.859375 L 10.6875 -12.734375 Z M 25.765625 -12.734375 "/></g></g></g><g fill="#00bf63" fill-opacity="1"><g transform="translate(204.52536, 290.690237)"><g><path d="M 20.875 0.40625 C 17.375 0.40625 14.21875 -0.367188 11.40625 -1.921875 C 8.59375 -3.472656 6.382812 -5.601562 4.78125 -8.3125 C 3.1875 -11.019531 2.390625 -14.070312 2.390625 -17.46875 C 2.390625 -20.863281 3.1875 -23.914062 4.78125 -26.625 C 6.382812 -29.34375 8.597656 -31.472656 11.421875 -33.015625 C 14.253906 -34.566406 17.421875 -35.34375 20.921875 -35.34375 C 23.648438 -35.34375 26.144531 -34.882812 28.40625 -33.96875 C 30.664062 -33.050781 32.597656 -31.695312 34.203125 -29.90625 L 30.953125 -26.765625 C 28.316406 -29.523438 25.035156 -30.90625 21.109375 -30.90625 C 18.515625 -30.90625 16.171875 -30.320312 14.078125 -29.15625 C 11.984375 -27.988281 10.34375 -26.378906 9.15625 -24.328125 C 7.976562 -22.285156 7.390625 -20 7.390625 -17.46875 C 7.390625 -14.9375 7.976562 -12.644531 9.15625 -10.59375 C 10.34375 -8.550781 11.984375 -6.945312 14.078125 -5.78125 C 16.171875 -4.625 18.515625 -4.046875 21.109375 -4.046875 C 25.003906 -4.046875 28.285156 -5.441406 30.953125 -8.234375 L 34.203125 -5.09375 C 32.597656 -3.289062 30.65625 -1.921875 28.375 -0.984375 C 26.101562 -0.0546875 23.601562 0.40625 20.875 0.40625 Z M 20.875 0.40625 "/></g></g></g><g fill="#00bf63" fill-opacity="1"><g transform="translate(240.623308, 290.690237)"><g><path d="M 30.609375 -4.34375 L 30.609375 0 L 5.234375 0 L 5.234375 -34.953125 L 29.90625 -34.953125 L 29.90625 -30.609375 L 10.234375 -30.609375 L 10.234375 -19.875 L 27.75 -19.875 L 27.75 -15.625 L 10.234375 -15.625 L 10.234375 -4.34375 Z M 30.609375 -4.34375 "/></g></g></g></svg>